<svg width="25" height="25" viewBox="0 0 25 25" fill="none" xmlns="http://www.w3.org/2000/svg">
<path d="M23.8235 19.5318L23.83 19.5281L15.5185 5.13255L15.515 5.13455C15.332 4.75905 14.95 4.4978 14.504 4.4978C14.2869 4.49818 14.0745 4.56123 13.8924 4.67937C13.7103 4.79751 13.5661 4.96573 13.4772 5.1638L7.946 14.7438L6.59175 12.3983L6.59 12.3993C6.54173 12.2988 6.46609 12.214 6.37176 12.1545C6.27743 12.0951 6.16824 12.0635 6.05675 12.0633C5.81575 12.0633 5.609 12.2078 5.51575 12.4138L1.56775 19.2523H1.55V19.2828L1.16775 19.9448C1.12178 20.0044 1.09674 20.0775 1.0965 20.1528C1.0965 20.3438 1.25125 20.4986 1.442 20.4986C1.48 20.4986 1.51575 20.4911 1.55 20.4796V20.5023H23.3V20.4898C23.4639 20.4772 23.6171 20.4033 23.7289 20.2828C23.8407 20.1622 23.903 20.004 23.9032 19.8396C23.9025 19.732 23.8751 19.6262 23.8235 19.5318Z" fill="white"/>
</svg>
