<svg width="24" height="24" viewBox="0 0 24 24" fill="none" xmlns="http://www.w3.org/2000/svg">
<path d="M2 23V21H3C3.53333 21 4.05 20.9167 4.55 20.75C5.05 20.5833 5.53333 20.3333 6 20C6.46667 20.3333 6.95 20.5833 7.45 20.75C7.95 20.9167 8.46667 21 9 21C9.53333 21 10.0543 20.9167 10.563 20.75C11.0717 20.5833 11.5507 20.3333 12 20C12.4667 20.3333 12.95 20.5833 13.45 20.75C13.95 20.9167 14.4667 21 15 21C15.5333 21 16.0543 20.9167 16.563 20.75C17.0717 20.5833 17.5507 20.3333 18 20C18.45 20.3333 18.9293 20.5833 19.438 20.75C19.9467 20.9167 20.4673 21 21 21H22V23H21C20.4833 23 19.975 22.9377 19.475 22.813C18.975 22.6883 18.4833 22.5007 18 22.25C17.5167 22.5 17.025 22.6877 16.525 22.813C16.025 22.9383 15.5167 23.0007 15 23C14.4833 22.9993 13.975 22.937 13.475 22.813C12.975 22.689 12.4833 22.5013 12 22.25C11.5167 22.5 11.025 22.6877 10.525 22.813C10.025 22.9383 9.51667 23.0007 9 23C8.48333 22.9993 7.975 22.937 7.475 22.813C6.975 22.689 6.48333 22.5013 6 22.25C5.51667 22.5 5.025 22.6877 4.525 22.813C4.025 22.9383 3.51667 23.0007 3 23H2ZM9 19C8.4 19 7.84167 18.8583 7.325 18.575C6.80833 18.2917 6.36667 17.9333 6 17.5C5.71667 17.8 5.40433 18.071 5.063 18.313C4.72167 18.555 4.34233 18.7423 3.925 18.875C3.24167 18.6917 2.55 18.475 1.85 18.225C1.15 17.975 0.533333 17.7333 0 17.5C0.9 17.1167 2 16.725 3.3 16.325C4.6 15.925 5.875 15.625 7.125 15.425L8.475 11.25C8.65833 10.6833 9.00433 10.3083 9.513 10.125C10.0217 9.94167 10.5007 9.96667 10.95 10.2L13.5 11.5L16.325 10L17.975 6.3L17.475 4.975L18.8 2L22 3.425L20.675 6.4L19.35 6.9L15.65 15.25C17.2 15.4333 18.754 15.75 20.312 16.2C21.87 16.65 23.0993 17.0833 24 17.5C23.5167 17.7167 22.904 17.9543 22.162 18.213C21.42 18.4717 20.7243 18.6923 20.075 18.875C19.6583 18.7583 19.2793 18.5793 18.938 18.338C18.5967 18.0967 18.284 17.8173 18 17.5C17.6333 17.9333 17.1917 18.2917 16.675 18.575C16.1583 18.8583 15.6 19 15 19C14.4 19 13.8417 18.8583 13.325 18.575C12.8083 18.2917 12.3667 17.9333 12 17.5C11.6333 17.9333 11.1917 18.2917 10.675 18.575C10.1583 18.8583 9.6 19 9 19ZM14.075 15.075L15.025 12.95L13.5 13.75L11.75 12.85L11.05 15H12C12.35 15 12.7 15.0043 13.05 15.013C13.4 15.0217 13.7417 15.0423 14.075 15.075ZM12 9.5C11.45 9.5 10.9793 9.30433 10.588 8.913C10.1967 8.52167 10.0007 8.05067 10 7.5C9.99933 6.94933 10.1953 6.47867 10.588 6.088C10.9807 5.69733 11.4513 5.50133 12 5.5C12.5487 5.49867 13.0197 5.69467 13.413 6.088C13.8063 6.48133 14.002 6.952 14 7.5C13.998 8.048 13.8023 8.519 13.413 8.913C13.0237 9.307 12.5527 9.50267 12 9.5Z" fill="white"/>
</svg>
