<svg width="25" height="25" viewBox="0 0 25 25" fill="none" xmlns="http://www.w3.org/2000/svg">
<path d="M3.21499 10.775C3.10499 11 3.02999 11.245 2.98499 11.51C2.96499 11.64 2.95499 11.775 2.95499 11.905L3.04999 17.97L0.949995 22.48C0.879995 22.615 0.824995 22.77 0.799995 22.93C0.684995 23.675 1.19999 24.37 1.94999 24.485C2.52999 24.575 3.08499 24.28 3.34999 23.79L5.66499 18.86C5.71499 18.745 5.75499 18.625 5.77499 18.495L5.78999 18.31L5.76999 14.56L9.325 16.105L9.89999 19.77C9.95961 20.0395 10.0995 20.2845 10.3012 20.4729C10.503 20.6612 10.7571 20.784 11.03 20.825C11.78 20.935 12.475 20.42 12.59 19.685C12.61 19.56 12.61 19.43 12.595 19.31L11.895 14.89C11.81 14.465 11.525 14.095 11.13 13.91L7.95499 12.505L9.97999 9L10.985 10.27C11.09 10.385 11.22 10.48 11.37 10.54L15.195 11.655C15.4425 11.7101 15.7015 11.6754 15.9259 11.5573C16.1502 11.4392 16.3253 11.2452 16.42 11.01C16.4738 10.8794 16.5011 10.7394 16.5006 10.5982C16.5 10.457 16.4714 10.3173 16.4166 10.1871C16.3617 10.057 16.2817 9.93896 16.181 9.83991C16.0803 9.74086 15.961 9.66272 15.83 9.60999L15.775 9.59L12.455 8.615L9.955 5.625C9.56892 5.21392 9.05703 4.94302 8.49999 4.855C7.48499 4.705 6.51999 5.185 6.01499 6.005L3.23499 10.79L3.21499 10.775ZM14.185 19.465L13.945 21.28L7.36499 22.875L7.42999 24H23.475C24.045 24 24.505 23.545 24.505 22.98L24.485 1.445L22.285 0.934995L21.02 6.595L18.91 7.48L17.04 12.7L18.82 16.695L18.32 18.23L14.19 19.47L14.185 19.465ZM9.72 4.575C10.85 4.575 11.77 3.66 11.77 2.535C11.77 1.41 10.85 0.494995 9.725 0.494995C8.6 0.494995 7.67499 1.41 7.67499 2.535C7.67499 3.66 8.595 4.575 9.725 4.575H9.72ZM5.64499 4.895C5.79999 4.62 5.70999 4.26 5.42999 4.1L4.43999 3.525C4.15499 3.37 3.79999 3.46 3.63499 3.74L0.579995 8.99C0.424995 9.265 0.514995 9.62 0.794995 9.785L1.78999 10.355C2.06999 10.515 2.42499 10.42 2.58499 10.145L5.63999 4.895H5.64499Z" fill="white"/>
</svg>
